<svg width="279" height="52" viewBox="0 0 279 52" fill="none" xmlns="http://www.w3.org/2000/svg">
<path d="M0.26442 40V2.44083H15.0827C17.9192 2.44083 20.34 2.94822 22.3451 3.963C24.3624 4.96556 25.8968 6.38992 26.9483 8.23609C28.012 10.07 28.5438 12.228 28.5438 14.7099C28.5438 17.2041 28.0059 19.3498 26.93 21.1471C25.8541 22.9321 24.2952 24.3014 22.2534 25.2551C20.2238 26.2087 17.7664 26.6856 14.881 26.6856H4.95932V20.3034H13.5972C15.1133 20.3034 16.3726 20.0956 17.3751 19.6799C18.3777 19.2642 19.1235 18.6407 19.6125 17.8093C20.1138 16.9779 20.3644 15.9448 20.3644 14.7099C20.3644 13.4628 20.1138 12.4114 19.6125 11.5555C19.1235 10.6997 18.3716 10.0517 17.3568 9.61155C16.3542 9.15918 15.0888 8.93299 13.5605 8.93299H8.2054V40H0.26442ZM20.5478 22.9076L29.8826 40H21.1164L11.9833 22.9076H20.5478ZM46.3927 40.5502C43.4951 40.5502 41.0009 39.9633 38.9102 38.7896C36.8317 37.6036 35.2301 35.9286 34.1053 33.7646C32.9805 31.5883 32.418 29.0147 32.418 26.0437C32.418 23.1461 32.9805 20.603 34.1053 18.4145C35.2301 16.226 36.8134 14.5204 38.8552 13.2978C40.9092 12.0751 43.3178 11.4638 46.0809 11.4638C47.9393 11.4638 49.6693 11.7634 51.271 12.3625C52.8849 12.9493 54.2909 13.8357 55.4891 15.0217C56.6995 16.2076 57.6409 17.6992 58.3133 19.4965C58.9858 21.2815 59.322 23.3722 59.322 25.7686V27.9143H35.5357V23.0727H51.9679C51.9679 21.9479 51.7234 20.9514 51.2343 20.0834C50.7453 19.2153 50.0667 18.5367 49.1986 18.0477C48.3428 17.5464 47.3463 17.2958 46.2093 17.2958C45.0233 17.2958 43.9719 17.5709 43.0549 18.121C42.1502 18.659 41.441 19.3865 40.9275 20.3034C40.414 21.2082 40.1512 22.2169 40.1389 23.3294V27.9326C40.1389 29.3264 40.3957 30.5307 40.9092 31.5455C41.4349 32.5603 42.1746 33.3428 43.1283 33.893C44.0819 34.4431 45.2129 34.7182 46.5211 34.7182C47.3891 34.7182 48.1838 34.596 48.9052 34.3515C49.6265 34.1069 50.244 33.7401 50.7575 33.2511C51.271 32.762 51.6622 32.1629 51.9312 31.4538L59.1569 31.9306C58.7902 33.6668 58.0382 35.1828 56.9012 36.4788C55.7764 37.7626 54.3214 38.7651 52.5364 39.4865C50.7636 40.1956 48.7157 40.5502 46.3927 40.5502ZM77.1113 51.1504C74.5804 51.1504 72.4102 50.8019 70.6008 50.105C68.8035 49.4204 67.373 48.485 66.3093 47.2991C65.2456 46.1131 64.5549 44.7805 64.237 43.3011L71.4627 42.3291C71.6828 42.8915 72.0312 43.4172 72.5081 43.9063C72.9849 44.3954 73.6145 44.7866 74.397 45.08C75.1917 45.3857 76.1576 45.5385 77.2946 45.5385C78.9941 45.5385 80.394 45.1228 81.4944 44.2914C82.607 43.4723 83.1633 42.0968 83.1633 40.1651V35.0117H82.8332C82.4908 35.7942 81.9773 36.5338 81.2926 37.2307C80.608 37.9276 79.7277 38.4962 78.6518 38.9363C77.5759 39.3765 76.2921 39.5965 74.8005 39.5965C72.6853 39.5965 70.7597 39.1075 69.0236 38.1294C67.2997 37.139 65.9242 35.6291 64.8972 33.5995C63.8824 31.5577 63.375 28.978 63.375 25.8603C63.375 22.6692 63.8946 20.0039 64.9339 17.8643C65.9731 15.7247 67.3547 14.1231 69.0786 13.0594C70.8147 11.9957 72.7159 11.4638 74.7821 11.4638C76.3593 11.4638 77.6798 11.7328 78.7435 12.2708C79.8072 12.7965 80.663 13.4567 81.311 14.2514C81.9712 15.0339 82.4786 15.8042 82.8332 16.5622H83.1266V11.8306H90.8842V40.2751C90.8842 42.6714 90.2973 44.6766 89.1236 46.2904C87.9499 47.9043 86.3238 49.1147 84.2453 49.9216C82.1791 50.7408 79.801 51.1504 77.1113 51.1504ZM77.2763 33.7279C78.5356 33.7279 79.5993 33.4161 80.4674 32.7926C81.3477 32.1568 82.0201 31.2521 82.4847 30.0784C82.9615 28.8924 83.1999 27.4742 83.1999 25.8236C83.1999 24.1731 82.9676 22.7426 82.503 21.5322C82.0385 20.3096 81.366 19.362 80.4857 18.6896C79.6054 18.0171 78.5356 17.6809 77.2763 17.6809C75.9925 17.6809 74.9105 18.0294 74.0302 18.7262C73.1499 19.4109 72.4836 20.3646 72.0312 21.5872C71.5789 22.8098 71.3527 24.222 71.3527 25.8236C71.3527 27.4497 71.5789 28.8557 72.0312 30.0417C72.4958 31.2154 73.1622 32.1263 74.0302 32.7743C74.9105 33.41 75.9925 33.7279 77.2763 33.7279ZM97.1012 40V11.8306H104.914V40H97.1012ZM101.026 8.19941C99.8644 8.19941 98.8679 7.81428 98.0366 7.04403C97.2174 6.26154 96.8078 5.32623 96.8078 4.23809C96.8078 3.16218 97.2174 2.23909 98.0366 1.46884C98.8679 0.686355 99.8644 0.295113 101.026 0.295113C102.187 0.295113 103.178 0.686355 103.997 1.46884C104.828 2.23909 105.244 3.16218 105.244 4.23809C105.244 5.32623 104.828 6.26154 103.997 7.04403C103.178 7.81428 102.187 8.19941 101.026 8.19941ZM134.61 19.8633L127.458 20.3034C127.335 19.6921 127.072 19.1419 126.669 18.6529C126.266 18.1516 125.734 17.7543 125.073 17.4608C124.425 17.1552 123.649 17.0023 122.744 17.0023C121.534 17.0023 120.513 17.2591 119.682 17.7726C118.85 18.2739 118.435 18.9463 118.435 19.7899C118.435 20.4624 118.704 21.0309 119.242 21.4955C119.779 21.9601 120.703 22.333 122.011 22.6142L127.109 23.6412C129.848 24.2036 131.89 25.1084 133.235 26.3555C134.579 27.6025 135.252 29.2409 135.252 31.2704C135.252 33.1166 134.708 34.7366 133.62 36.1304C132.544 37.5242 131.064 38.6123 129.182 39.3948C127.311 40.1651 125.153 40.5502 122.708 40.5502C118.979 40.5502 116.008 39.7738 113.795 38.2211C111.594 36.6561 110.304 34.5287 109.925 31.8389L117.609 31.4355C117.842 32.5725 118.404 33.4406 119.297 34.0397C120.189 34.6265 121.332 34.92 122.726 34.92C124.095 34.92 125.196 34.6571 126.027 34.1314C126.871 33.5934 127.299 32.9026 127.311 32.059C127.299 31.3499 126.999 30.7691 126.412 30.3168C125.825 29.8522 124.921 29.4976 123.698 29.2531L118.82 28.2811C116.069 27.7309 114.021 26.7773 112.676 25.4201C111.343 24.063 110.677 22.333 110.677 20.2301C110.677 18.4206 111.166 16.8617 112.144 15.5535C113.134 14.2453 114.522 13.2366 116.307 12.5275C118.104 11.8184 120.207 11.4638 122.616 11.4638C126.174 11.4638 128.974 12.2157 131.015 13.7196C133.069 15.2234 134.268 17.2713 134.61 19.8633ZM155.155 11.8306V17.6992H138.191V11.8306H155.155ZM142.042 5.08171H149.855V31.3438C149.855 32.0651 149.965 32.6275 150.185 33.031C150.405 33.4223 150.71 33.6973 151.102 33.8563C151.505 34.0152 151.97 34.0947 152.496 34.0947C152.862 34.0947 153.229 34.0641 153.596 34.003C153.963 33.9296 154.244 33.8746 154.44 33.8379L155.668 39.6516C155.277 39.7738 154.727 39.9144 154.018 40.0734C153.309 40.2445 152.447 40.3484 151.432 40.3851C149.549 40.4585 147.898 40.2078 146.48 39.6332C145.074 39.0586 143.98 38.1661 143.197 36.9557C142.415 35.7453 142.03 34.217 142.042 32.3708V5.08171ZM160.244 40V11.8306H167.818V16.7456H168.112C168.625 14.9972 169.487 13.6768 170.697 12.7843C171.908 11.8795 173.302 11.4272 174.879 11.4272C175.27 11.4272 175.692 11.4516 176.144 11.5005C176.597 11.5494 176.994 11.6167 177.336 11.7022V18.6346C176.969 18.5245 176.462 18.4267 175.814 18.3411C175.166 18.2555 174.573 18.2127 174.035 18.2127C172.886 18.2127 171.859 18.4634 170.954 18.9647C170.062 19.4537 169.353 20.1384 168.827 21.0187C168.313 21.899 168.057 22.9138 168.057 24.063V40H160.244Z" fill="#F2A81D"/>
<path d="M185.928 40H177.419L190.385 2.44083H200.618L213.566 40H205.056L195.648 11.0237H195.355L185.928 40ZM185.396 25.2368H205.497V31.4355H185.396V25.2368ZM217.94 50.5635V11.8306H225.642V16.5622H225.991C226.333 15.8042 226.828 15.0339 227.476 14.2514C228.137 13.4567 228.992 12.7965 230.044 12.2708C231.108 11.7328 232.428 11.4638 234.005 11.4638C236.059 11.4638 237.954 12.0018 239.69 13.0777C241.427 14.1414 242.814 15.7491 243.853 17.901C244.893 20.0406 245.412 22.7242 245.412 25.952C245.412 29.0941 244.905 31.7473 243.89 33.9113C242.888 36.0631 241.518 37.6953 239.782 38.8079C238.058 39.9083 236.126 40.4585 233.987 40.4585C232.471 40.4585 231.181 40.2078 230.117 39.7066C229.066 39.2053 228.204 38.5756 227.531 37.8176C226.859 37.0474 226.345 36.271 225.991 35.4885H225.752V50.5635H217.94ZM225.587 25.9153C225.587 27.5903 225.82 29.0514 226.284 30.2984C226.749 31.5455 227.421 32.5175 228.302 33.2144C229.182 33.8991 230.252 34.2414 231.511 34.2414C232.783 34.2414 233.858 33.893 234.739 33.1961C235.619 32.4869 236.285 31.5088 236.738 30.2618C237.202 29.0024 237.435 27.5536 237.435 25.9153C237.435 24.2892 237.208 22.8587 236.756 21.6239C236.304 20.389 235.637 19.4231 234.757 18.7262C233.877 18.0294 232.795 17.6809 231.511 17.6809C230.239 17.6809 229.164 18.0171 228.283 18.6896C227.415 19.362 226.749 20.3157 226.284 21.5505C225.82 22.7854 225.587 24.2403 225.587 25.9153ZM250.621 50.5635V11.8306H258.323V16.5622H258.672C259.014 15.8042 259.509 15.0339 260.157 14.2514C260.817 13.4567 261.673 12.7965 262.725 12.2708C263.788 11.7328 265.109 11.4638 266.686 11.4638C268.74 11.4638 270.635 12.0018 272.371 13.0777C274.107 14.1414 275.495 15.7491 276.534 17.901C277.574 20.0406 278.093 22.7242 278.093 25.952C278.093 29.0941 277.586 31.7473 276.571 33.9113C275.568 36.0631 274.199 37.6953 272.463 38.8079C270.739 39.9083 268.807 40.4585 266.668 40.4585C265.152 40.4585 263.862 40.2078 262.798 39.7066C261.747 39.2053 260.885 38.5756 260.212 37.8176C259.54 37.0474 259.026 36.271 258.672 35.4885H258.433V50.5635H250.621ZM258.268 25.9153C258.268 27.5903 258.501 29.0514 258.965 30.2984C259.43 31.5455 260.102 32.5175 260.982 33.2144C261.863 33.8991 262.933 34.2414 264.192 34.2414C265.463 34.2414 266.539 33.893 267.42 33.1961C268.3 32.4869 268.966 31.5088 269.419 30.2618C269.883 29.0024 270.116 27.5536 270.116 25.9153C270.116 24.2892 269.889 22.8587 269.437 21.6239C268.985 20.389 268.318 19.4231 267.438 18.7262C266.558 18.0294 265.476 17.6809 264.192 17.6809C262.92 17.6809 261.844 18.0171 260.964 18.6896C260.096 19.362 259.43 20.3157 258.965 21.5505C258.501 22.7854 258.268 24.2403 258.268 25.9153Z" fill="#EEEEEE"/>
</svg>
